<?xml version="1.0" ?><svg viewBox="0 0 512 512" xmlns="http://www.w3.org/2000/svg"><defs><style>.cls-1{fill:#575757;}.cls-2{fill:#4a4a4a;}.cls-3{fill:#6e6e6e;}.cls-4{fill:#fda5a3;}.cls-5{fill:#00659d;}.cls-6{fill:#5ca4cc;}.cls-7{fill:#46c89d;}.cls-8{fill:#00b378;}.cls-9{fill:#00a16c;}.cls-10{fill:#cbe2ef;}.cls-11{fill:#338dbf;}.cls-12{fill:#59cea7;}.cls-13{fill:#0071af;}.cls-14{fill:#bdecdc;}.cls-15{fill:#096;}.cls-16{fill:#005686;}.cls-17{fill:#2c78a3;}.cls-18{fill:#4e8cae;}.cls-19{fill:#d78d8b;}.cls-20{fill:#a1c9bc;}.cls-21{fill:#3caa86;}.cls-22{fill:#006095;}</style></defs><title/><g data-name="/ FLAT" id="_FLAT"><circle class="cls-1" cx="96" cy="432" r="56"/><path class="cls-2" d="M73,483.05566a55.99435,55.99435,0,0,0,74.05566-74.05578A112.25219,112.25219,0,0,1,73,483.05566Z"/><circle class="cls-3" cx="96" cy="432" r="16"/><path class="cls-4" d="M192,168v32H176a16,16,0,0,1-16-16v0a16,16,0,0,1,16-16Z"/><rect class="cls-5" height="32" width="120" x="192" y="168"/><path class="cls-6" d="M177.80127,152H130.98a39.49007,39.49007,0,0,0-30.83667,14.82086v.00006a39.49011,39.49011,0,0,0,.49927,49.95032l13.34277,16.01111a16.00049,16.00049,0,0,1,2.64209,15.98663L80,344h56l56.98-170.94037A15.99983,15.99983,0,0,0,177.80127,152Z"/><path class="cls-1" d="M240,360H228a20.00005,20.00005,0,0,0-20,20h0a20.00005,20.00005,0,0,0,20,20h32a20,20,0,0,0,20-20V328a24,24,0,0,1,24-24h40a16,16,0,0,0,16-16V240H296v16a16,16,0,0,1-16,16h-8a32,32,0,0,0-32,32Z"/><path class="cls-4" d="M350.62744,150.62738l-1.94092-1.9411A15.99865,15.99865,0,0,1,344,137.37256V72H264V98.3349a32,32,0,0,0,20.11523,29.7113l9.82715,3.93067A16.00037,16.00037,0,0,1,304,146.83252V160l-8,8v72h64V173.25482A32.00078,32.00078,0,0,0,350.62744,150.62738Z"/><path class="cls-7" d="M334.70361,72l-60.11377,50.09479a31.92752,31.92752,0,0,0,9.52539,5.95141l5.62549,2.25006L344,85.08026V72Z"/><path class="cls-5" d="M350.62744,150.62738l-1.94184-1.942A15.9995,15.9995,0,0,1,344,137.37256V136h-9.37258a16,16,0,0,0-11.31371,4.68629L296,168v72h64V173.25625A32.00357,32.00357,0,0,0,350.62744,150.62738Z"/><rect class="cls-8" height="144" rx="16" width="128" x="360" y="160"/><path class="cls-9" d="M360,192H488V176a16,16,0,0,0-16-16H376a16,16,0,0,0-16,16Z"/><rect class="cls-10" height="16" width="64" x="400" y="112"/><rect class="cls-10" height="16" width="64" x="416" y="80"/><rect class="cls-10" height="16" width="48" x="448" y="48"/><path class="cls-5" d="M280,360H228a20,20,0,0,0-20,20v0a20,20,0,0,0,20,20h32a20,20,0,0,0,20-20Z"/><path class="cls-11" d="M464,304H304a23.99994,23.99994,0,0,0-24,24v8H488v-8A23.99994,23.99994,0,0,0,464,304Z"/><rect class="cls-12" height="24" width="16" x="416" y="216"/><path class="cls-13" d="M273.37256,190.62738A32,32,0,0,1,250.74512,200H168a16,16,0,0,0-16,16v0a16,16,0,0,0,16,16h98.74512a32,32,0,0,0,22.62744-9.37262l49.65687-49.65682a16.97055,16.97055,0,0,0,4.97057-12v-.00005c0-15.11914-18.27969-22.69084-28.97054-12Z"/><path class="cls-4" d="M184,200v32H168a16,16,0,0,1-16-16v0a16,16,0,0,1,16-16Z"/><path class="cls-14" d="M456,272v-8a32,32,0,0,0-32-32H424a32,32,0,0,0-32,32v8Z"/><path class="cls-10" d="M130.98,152a39.49007,39.49007,0,0,0-30.83667,14.82086v.00006a39.48548,39.48548,0,0,0-1.22,47.71741l17.22119-8.6106a31.99948,31.99948,0,0,0,16.04688-18.50238L144,152Z"/><polygon class="cls-11" points="106.667 274.667 80 344 136 344 146 314 106.667 274.667"/><path class="cls-6" d="M280,336v44a20,20,0,0,1-20,20H192.23385a16,16,0,0,1-13.01974-6.7002L149.148,351.20717A17.21065,17.21065,0,0,0,135.14307,344H76.57056a17.21074,17.21074,0,0,0-8.53894,2.26764l-37.5195,21.43979a17.50467,17.50467,0,0,0-7.33783,22.63718,17.2106,17.2106,0,0,0,25.04739,6.84094L63.96921,386.6872A16,16,0,0,1,72.84441,384h44.636a16,16,0,0,1,13.01975,6.70021l24.71388,34.59955A16.00008,16.00008,0,0,0,168.23389,432H376a16,16,0,0,1,32,0h40V392.24807a23.99908,23.99908,0,0,1,15.08643-22.28274l9.82648-3.9304A24.00012,24.00012,0,0,0,488,343.75122V336Z"/><circle class="cls-1" cx="392" cy="432" r="56"/><circle class="cls-3" cx="392" cy="432" r="16"/><path class="cls-15" d="M360,176.00012V288a16.00008,16.00008,0,0,0,16,16h96a15.97491,15.97491,0,0,0,4.11523-.55408A128.00764,128.00764,0,0,1,360,176.00012Z"/><path class="cls-2" d="M296,304h48a16.00008,16.00008,0,0,0,16-16V240.00006A64,64,0,0,1,296,304Z"/><path class="cls-16" d="M296,240h64V176.00006A64,64,0,0,1,296,240Z"/><path class="cls-16" d="M240,400h20a19.9999,19.9999,0,0,0,20-20V360A40.0001,40.0001,0,0,1,240,400Z"/><path class="cls-2" d="M369,483.05566a55.99435,55.99435,0,0,0,74.05566-74.05578A112.25219,112.25219,0,0,1,369,483.05566Z"/><path class="cls-17" d="M464,304H360a127.50469,127.50469,0,0,1,84.65332,32H488v-8A23.99994,23.99994,0,0,0,464,304Z"/><path class="cls-18" d="M470.32227,367.071l2.59082-1.03613A24.00025,24.00025,0,0,0,488,343.75122V336H444.65332A128.58093,128.58093,0,0,1,470.32227,367.071Z"/><path class="cls-19" d="M344,136V72H264v2.78827A104.20478,104.20478,0,0,1,336.01123,136Z"/><path class="cls-17" d="M80.0957,343.75122,80,344h56l8.84766-26.54272A110.77831,110.77831,0,0,1,80.0957,343.75122Z"/><path class="cls-20" d="M392.15771,260.82959C392.05469,261.8728,392,262.92993,392,264v8h11.35254A128.69377,128.69377,0,0,1,392.15771,260.82959Z"/><path class="cls-21" d="M334.70361,72,306.16309,95.784a104.61892,104.61892,0,0,1,11.58447,11.17328L344,85.08026V72Z"/><path class="cls-13" d="M360,32a27.31344,27.31344,0,0,0-19.31348-8h-73.373A27.31371,27.31371,0,0,0,240,51.31366V56H224V72h76.47949A27.52052,27.52052,0,0,1,328,99.52057v.00006c0,10.84491,8.43311,20.0813,19.271,20.46637A20.00032,20.00032,0,0,0,368,100V51.31366A27.31466,27.31466,0,0,0,360,32Z"/><rect class="cls-6" height="16" width="16" x="328" y="48"/><path class="cls-22" d="M328.14648,101.87048A20.23783,20.23783,0,0,0,347.271,119.987,20.00032,20.00032,0,0,0,368,100V51.31366a27.30557,27.30557,0,0,0-1.6748-9.40454A96.00913,96.00913,0,0,1,328.14648,101.87048Z"/></g></svg>